<svg id="Calque_1" data-name="Calque 1" xmlns="http://www.w3.org/2000/svg" xmlns:xlink="http://www.w3.org/1999/xlink" viewBox="0 0 249.44 141.36"><defs><style>.cls-1,.cls-2,.cls-3,.cls-4,.cls-5,.cls-6,.cls-7,.cls-8,.cls-9{stroke:#161616;stroke-miterlimit:10;stroke-width:3px;}.cls-1{fill:url(#Dégradé_sans_nom_21);}.cls-2{fill:url(#Dégradé_sans_nom_21-2);}.cls-3{fill:url(#Dégradé_sans_nom_21-3);}.cls-4{fill:url(#Dégradé_sans_nom_21-4);}.cls-5{fill:url(#Dégradé_sans_nom_21-5);}.cls-6{fill:url(#Dégradé_sans_nom_21-6);}.cls-7{fill:url(#Dégradé_sans_nom_21-7);}.cls-8{fill:url(#Dégradé_sans_nom_21-8);}.cls-9{fill:url(#Dégradé_sans_nom_21-9);}</style><linearGradient id="Dégradé_sans_nom_21" x1="499.17" y1="307.62" x2="537.33" y2="307.62" gradientUnits="userSpaceOnUse"><stop offset="0" stop-color="#ff5f6d"/><stop offset="1" stop-color="#ffc371"/></linearGradient><linearGradient id="Dégradé_sans_nom_21-2" x1="542.44" y1="312.91" x2="581.89" y2="312.91" xlink:href="#Dégradé_sans_nom_21"/><linearGradient id="Dégradé_sans_nom_21-3" x1="588.45" y1="306.36" x2="628.41" y2="306.36" xlink:href="#Dégradé_sans_nom_21"/><linearGradient id="Dégradé_sans_nom_21-4" x1="634.53" y1="312.91" x2="676.29" y2="312.91" xlink:href="#Dégradé_sans_nom_21"/><linearGradient id="Dégradé_sans_nom_21-5" x1="680.39" y1="312.91" x2="722.15" y2="312.91" xlink:href="#Dégradé_sans_nom_21"/><linearGradient id="Dégradé_sans_nom_21-6" x1="728.7" y1="306.36" x2="741.01" y2="306.36" xlink:href="#Dégradé_sans_nom_21"/><linearGradient id="Dégradé_sans_nom_21-7" x1="606.94" y1="375.73" x2="645.46" y2="375.73" xlink:href="#Dégradé_sans_nom_21"/><linearGradient id="Dégradé_sans_nom_21-8" x1="651.42" y1="375.91" x2="693.83" y2="375.91" xlink:href="#Dégradé_sans_nom_21"/><linearGradient id="Dégradé_sans_nom_21-9" x1="699.22" y1="388.45" x2="744.79" y2="388.45" xlink:href="#Dégradé_sans_nom_21"/></defs><path class="cls-1" d="M509,331.7a16.17,16.17,0,0,1-7-5.32,14.56,14.56,0,0,1-2.77-8.5h13.1a6.35,6.35,0,0,0,1.94,4.28,6.25,6.25,0,0,0,4.33,1.48,6.72,6.72,0,0,0,4.31-1.26,4.2,4.2,0,0,0,1.59-3.49,4.15,4.15,0,0,0-1.26-3.1,10.06,10.06,0,0,0-3.1-2,48.25,48.25,0,0,0-5.22-1.8,56.73,56.73,0,0,1-8-3,14.81,14.81,0,0,1-5.33-4.46,12.44,12.44,0,0,1-2.23-7.71,13.25,13.25,0,0,1,5.11-11q5.11-4,13.32-4t13.47,4a14.34,14.34,0,0,1,5.47,11.13H523.36a5.25,5.25,0,0,0-1.8-3.86,6.38,6.38,0,0,0-4.25-1.4,5.3,5.3,0,0,0-3.6,1.19,4.29,4.29,0,0,0-1.37,3.42,4.23,4.23,0,0,0,2.31,3.81,37.09,37.09,0,0,0,7.2,3,67.55,67.55,0,0,1,7.95,3.16,15.24,15.24,0,0,1,5.3,4.4,11.79,11.79,0,0,1,2.23,7.41,14.59,14.59,0,0,1-2.2,7.85,15.45,15.45,0,0,1-6.37,5.62,21.85,21.85,0,0,1-9.86,2.08A26,26,0,0,1,509,331.7Z" transform="translate(-497.62 -278.22)"/><path class="cls-2" d="M545,302a17.78,17.78,0,0,1,7.13-7.2,21.35,21.35,0,0,1,10.48-2.52,19.89,19.89,0,0,1,12.63,4,18.63,18.63,0,0,1,6.66,11.16h-13.1a6.31,6.31,0,0,0-6.41-4.61,6.48,6.48,0,0,0-5.4,2.63q-2,2.63-2,7.52c0,3.27.67,5.77,2,7.53a6.47,6.47,0,0,0,5.4,2.62,6.3,6.3,0,0,0,6.41-4.6h13.1a18.78,18.78,0,0,1-6.69,11.08,19.72,19.72,0,0,1-12.6,4,21.35,21.35,0,0,1-10.48-2.52,17.78,17.78,0,0,1-7.13-7.2A24.76,24.76,0,0,1,545,302Z" transform="translate(-497.62 -278.22)"/><path class="cls-3" d="M624.23,297q4.17,4.57,4.18,12.57V333H616.17V311.18a8.83,8.83,0,0,0-2.09-6.26,8.18,8.18,0,0,0-11.23,0,8.79,8.79,0,0,0-2.09,6.26V333H588.45V279.72h12.31v18.5a13.15,13.15,0,0,1,5.11-4.24,16.27,16.27,0,0,1,7.27-1.59A14.32,14.32,0,0,1,624.23,297Z" transform="translate(-497.62 -278.22)"/><path class="cls-4" d="M644.64,331.06a18.46,18.46,0,0,1-7.41-7.2,23.36,23.36,0,0,1,0-21.86,18.61,18.61,0,0,1,7.49-7.23,23.79,23.79,0,0,1,21.31,0,18.54,18.54,0,0,1,7.49,7.23,21.4,21.4,0,0,1,2.74,10.91,21.1,21.1,0,0,1-2.78,10.91,18.68,18.68,0,0,1-7.56,7.24,22.58,22.58,0,0,1-10.69,2.52A22.21,22.21,0,0,1,644.64,331.06Zm16.63-10.73q2.49-2.59,2.49-7.42c0-3.21-.81-5.69-2.41-7.41a8.17,8.17,0,0,0-11.92,0c-1.58,1.7-2.38,4.19-2.38,7.45s.78,5.69,2.34,7.42a7.57,7.57,0,0,0,5.87,2.59A8,8,0,0,0,661.27,320.33Z" transform="translate(-497.62 -278.22)"/><path class="cls-5" d="M690.5,331.06a18.46,18.46,0,0,1-7.41-7.2,23.36,23.36,0,0,1,0-21.86,18.67,18.67,0,0,1,7.49-7.23,23.79,23.79,0,0,1,21.31,0,18.54,18.54,0,0,1,7.49,7.23,23,23,0,0,1,0,21.82,18.81,18.81,0,0,1-7.56,7.24,22.64,22.64,0,0,1-10.7,2.52A22.21,22.21,0,0,1,690.5,331.06Zm16.64-10.73q2.48-2.59,2.48-7.42c0-3.21-.8-5.69-2.41-7.41a8.17,8.17,0,0,0-11.92,0c-1.58,1.7-2.37,4.19-2.37,7.45s.78,5.69,2.34,7.42a7.55,7.55,0,0,0,5.86,2.59A8,8,0,0,0,707.14,320.33Z" transform="translate(-497.62 -278.22)"/><path class="cls-6" d="M741,279.72V333H728.7V279.72Z" transform="translate(-497.62 -278.22)"/><path class="cls-7" d="M643.44,374.76a14.72,14.72,0,0,1-6.19,5.86,21.77,21.77,0,0,1-10.37,2.24h-7.63V401H606.94V350.46h19.94a22.75,22.75,0,0,1,10.23,2.08,14.44,14.44,0,0,1,6.26,5.76,16.79,16.79,0,0,1,2.09,8.43A16.23,16.23,0,0,1,643.44,374.76Zm-12.24-3.35a7.2,7.2,0,0,0,0-9.36q-1.73-1.67-5.25-1.66h-6.7v12.67H626A7.35,7.35,0,0,0,631.2,371.41Z" transform="translate(-497.62 -278.22)"/><path class="cls-8" d="M653.76,365a17.44,17.44,0,0,1,6.37-7.2,16.64,16.64,0,0,1,9-2.52,15.35,15.35,0,0,1,7.45,1.73,12.77,12.77,0,0,1,4.94,4.53v-5.69h12.31V396H681.52v-5.69a13.29,13.29,0,0,1-5,4.54,15.47,15.47,0,0,1-7.45,1.73,16.39,16.39,0,0,1-8.93-2.56,17.64,17.64,0,0,1-6.37-7.27,24.26,24.26,0,0,1-2.34-10.91A24,24,0,0,1,653.76,365Zm25.2,3.67a8.28,8.28,0,0,0-6.23-2.66,8.37,8.37,0,0,0-6.23,2.62,10,10,0,0,0-2.55,7.24,10.22,10.22,0,0,0,2.55,7.31,8.57,8.57,0,0,0,12.46,0,11.6,11.6,0,0,0,0-14.54Z" transform="translate(-497.62 -278.22)"/><path class="cls-9" d="M744.79,358.82l-25.2,59.26H706.35l9.21-20.45-16.34-38.81H713L722.26,384l9.21-25.13Z" transform="translate(-497.62 -278.22)"/></svg>